<svg width="16" height="30" viewBox="0 0 16 30" fill="none" xmlns="http://www.w3.org/2000/svg">
<path d="M1.00012 28C1.00013 28.0682 1.01387 28.1898 1.10128 28.3074C1.19638 28.4354 1.32726 28.4903 1.43075 28.5069C1.58557 28.5317 1.70902 28.4777 1.73511 28.4663L1.73733 28.4654C1.8183 28.4303 1.89497 28.3768 1.94637 28.3393C2.06473 28.253 2.22405 28.1198 2.41024 27.9562C2.78754 27.6247 3.32104 27.1276 3.95496 26.5218C5.22467 25.3083 6.91531 23.6413 8.6042 21.9472C10.2933 20.253 11.9834 18.5291 13.2522 17.2014C13.8861 16.5381 14.4176 15.971 14.7918 15.5549C14.9781 15.3477 15.1301 15.1729 15.2373 15.0403C15.2901 14.975 15.3386 14.912 15.3761 14.8562C15.3944 14.829 15.4169 14.7937 15.4367 14.7545C15.437 14.7539 15.4373 14.7532 15.4378 14.7523C15.449 14.7304 15.5001 14.6303 15.5001 14.5001C15.5002 14.3723 15.4511 14.2741 15.4397 14.2513L15.4387 14.2493C15.4192 14.2099 15.3971 14.1746 15.3792 14.1476C15.3423 14.0923 15.2951 14.0302 15.2439 13.9665C15.14 13.8371 14.993 13.6672 14.8129 13.4662C14.4512 13.0627 13.9372 12.5129 13.3228 11.8691C12.0929 10.5804 10.4496 8.90327 8.7917 7.24029C7.13393 5.57739 5.45899 3.92603 4.16599 2.68928C3.5201 2.07149 2.96609 1.55388 2.55591 1.18925C2.35175 1.00775 2.17723 0.858799 2.04209 0.753132C1.97555 0.701109 1.90967 0.652551 1.8496 0.614658C1.82006 0.596018 1.78213 0.573701 1.73977 0.554415C1.71208 0.541814 1.61983 0.500001 1.50012 0.5C1.28937 0.499999 1.15084 0.621851 1.08501 0.712605C1.02773 0.791577 1.00588 0.868599 0.997329 0.902588C0.978757 0.976438 0.976123 1.04753 0.97546 1.08861C0.973952 1.18206 0.98232 1.29938 0.994533 1.42383C1.01961 1.67932 1.069 2.04161 1.13338 2.47906C1.1923 2.87931 1.26502 3.35079 1.34565 3.87353C1.35358 3.92497 1.36159 3.97691 1.36968 4.02932C1.46001 4.61517 1.55946 5.26228 1.66084 5.94811C2.06773 8.70072 2.50001 12.0416 2.50002 14.5C2.50002 16.963 2.12946 20.2468 1.75476 22.9638C1.56792 24.3186 1.381 25.526 1.24065 26.4109C1.20303 26.6482 1.168 26.8669 1.1374 27.058C1.11169 27.2185 1.0891 27.3595 1.07071 27.4757C1.05018 27.6054 1.03366 27.7118 1.02221 27.7903L1.02108 27.798C1.01298 27.8533 1.00012 27.9413 1.00012 28ZM1.97568 1.09596C1.9757 1.09601 1.97566 1.09729 1.97546 1.09963L1.97568 1.09596Z" fill="#649393" stroke="#649393"/>
</svg>
